<?xml version="1.0" encoding="UTF-8"?>
<svg id="Layer_2" data-name="Layer 2" xmlns="http://www.w3.org/2000/svg" xmlns:xlink="http://www.w3.org/1999/xlink" viewBox="0 0 5444.4 6262.06">
  <defs>
    <style>
      .cls-1, .cls-2, .cls-3, .cls-4, .cls-5, .cls-6, .cls-7, .cls-8, .cls-9, .cls-10, .cls-11, .cls-12, .cls-13 {
        fill: none;
      }

      .cls-1, .cls-2, .cls-3, .cls-5, .cls-6, .cls-7, .cls-8, .cls-9, .cls-10, .cls-11, .cls-12, .cls-13 {
        stroke-miterlimit: 10;
      }

      .cls-1, .cls-3, .cls-8, .cls-9, .cls-10 {
        stroke: #231f20;
      }

      .cls-14 {
        letter-spacing: -.09em;
      }

      .cls-15 {
        clip-path: url(#clippath-11);
      }

      .cls-16 {
        clip-path: url(#clippath-16);
      }

      .cls-2 {
        stroke: #9e9d9e;
      }

      .cls-2, .cls-10 {
        stroke-width: 17px;
      }

      .cls-17 {
        fill: #aeadad;
      }

      .cls-17, .cls-18, .cls-19, .cls-4, .cls-20, .cls-21, .cls-22, .cls-23, .cls-24, .cls-25, .cls-26, .cls-27, .cls-28, .cls-29, .cls-30, .cls-31 {
        stroke-width: 0px;
      }

      .cls-32 {
        letter-spacing: .02em;
      }

      .cls-33 {
        letter-spacing: -.04em;
      }

      .cls-34 {
        letter-spacing: 0em;
      }

      .cls-18 {
        fill: #4359a8;
      }

      .cls-35 {
        clip-path: url(#clippath-2);
      }

      .cls-36 {
        clip-path: url(#clippath-13);
      }

      .cls-19 {
        fill: #f99c1c;
      }

      .cls-3 {
        stroke-width: 3px;
      }

      .cls-37 {
        clip-path: url(#clippath-15);
      }

      .cls-38 {
        clip-path: url(#clippath-6);
      }

      .cls-5 {
        stroke-dasharray: 0 0 6.03 6.03;
      }

      .cls-5, .cls-8, .cls-12, .cls-13 {
        stroke-width: 4px;
      }

      .cls-5, .cls-12, .cls-13 {
        stroke: #ed1d24;
      }

      .cls-20 {
        fill: #686868;
      }

      .cls-39 {
        clip-path: url(#clippath-7);
      }

      .cls-21 {
        fill: #c6c6c5;
      }

      .cls-22 {
        fill: #ddd;
      }

      .cls-40 {
        clip-path: url(#clippath-1);
      }

      .cls-41 {
        clip-path: url(#clippath-4);
      }

      .cls-6 {
        stroke-width: 20px;
      }

      .cls-6, .cls-7 {
        stroke: #9b9a9b;
      }

      .cls-42 {
        clip-path: url(#clippath-12);
      }

      .cls-23 {
        fill: #fff;
      }

      .cls-7 {
        stroke-width: 31px;
      }

      .cls-24 {
        fill: #a09f9f;
      }

      .cls-25 {
        fill: #febb12;
      }

      .cls-43 {
        letter-spacing: -.09em;
      }

      .cls-26 {
        fill: #878787;
      }

      .cls-27, .cls-44 {
        fill: #231f20;
      }

      .cls-45 {
        clip-path: url(#clippath-9);
      }

      .cls-46 {
        opacity: .8;
      }

      .cls-28 {
        fill: #f2ea12;
      }

      .cls-47 {
        clip-path: url(#clippath);
      }

      .cls-9 {
        stroke-width: 7px;
      }

      .cls-48 {
        clip-path: url(#clippath-3);
      }

      .cls-49 {
        letter-spacing: .02em;
      }

      .cls-50 {
        clip-path: url(#clippath-8);
      }

      .cls-29 {
        fill: #e8e8e8;
      }

      .cls-51 {
        clip-path: url(#clippath-18);
      }

      .cls-52 {
        clip-path: url(#clippath-14);
      }

      .cls-53 {
        clip-path: url(#clippath-17);
      }

      .cls-54 {
        clip-path: url(#clippath-5);
      }

      .cls-30 {
        fill: #ed2024;
      }

      .cls-55 {
        clip-path: url(#clippath-10);
      }

      .cls-11 {
        stroke: #4b9cd5;
        stroke-width: 13px;
      }

      .cls-31 {
        fill: #ababab;
      }

      .cls-44 {
        font-family: MyriadPro-Regular, 'Myriad Pro';
        font-size: 32.47px;
      }

      .cls-13 {
        stroke-dasharray: 0 0 6 6;
      }
    </style>
    <clipPath id="clippath">
      <rect class="cls-4" width="5444.4" height="6262.06"/>
    </clipPath>
    <clipPath id="clippath-1">
      <path class="cls-4" d="m1557.01,3116.71c0,11.97,9.7,21.67,21.67,21.67s21.67-9.7,21.67-21.67l22.63-74.19-34.16-11.14-31.81,85.33Z"/>
    </clipPath>
    <clipPath id="clippath-2">
      <rect class="cls-4" width="5444.4" height="6262.06"/>
    </clipPath>
    <clipPath id="clippath-3">
      <rect class="cls-4" width="5444.4" height="6262.06"/>
    </clipPath>
    <clipPath id="clippath-4">
      <rect class="cls-4" width="5444.4" height="6262.06"/>
    </clipPath>
    <clipPath id="clippath-5">
      <rect class="cls-4" width="5444.4" height="6262.06"/>
    </clipPath>
    <clipPath id="clippath-6">
      <rect class="cls-4" width="5444.4" height="6262.06"/>
    </clipPath>
    <clipPath id="clippath-7">
      <rect class="cls-4" width="5444.4" height="6262.06"/>
    </clipPath>
    <clipPath id="clippath-8">
      <rect class="cls-4" width="5444.4" height="6262.06"/>
    </clipPath>
    <clipPath id="clippath-9">
      <rect class="cls-4" width="5444.4" height="6262.06"/>
    </clipPath>
    <clipPath id="clippath-10">
      <rect class="cls-4" width="5444.4" height="6262.06"/>
    </clipPath>
    <clipPath id="clippath-11">
      <rect class="cls-4" width="5444.4" height="6262.06"/>
    </clipPath>
    <clipPath id="clippath-12">
      <rect class="cls-4" width="5444.4" height="6262.06"/>
    </clipPath>
    <clipPath id="clippath-13">
      <rect class="cls-4" x="1847.52" y="2458.35" width="148.77" height="257.34"/>
    </clipPath>
    <clipPath id="clippath-14">
      <rect class="cls-4" x="3787.71" y="3446.52" width="143.04" height="233.48"/>
    </clipPath>
    <clipPath id="clippath-15">
      <rect class="cls-4" width="5444.4" height="6262.06"/>
    </clipPath>
    <clipPath id="clippath-16">
      <rect class="cls-4" width="5444.4" height="6262.06"/>
    </clipPath>
    <clipPath id="clippath-17">
      <rect class="cls-4" width="5444.4" height="6262.06"/>
    </clipPath>
    <clipPath id="clippath-18">
      <rect class="cls-4" x="175.67" y="899.72" width="4065.58" height="2381.55"/>
    </clipPath>
  </defs>
  <g id="Layer_1-2" data-name="Layer 1">
    <g>
      <g class="cls-47">
        <path class="cls-10" d="m4519.02,1390.59l121.95,60.63s60.98,52.79,24.85,125.72c-36.13,72.92-52.25,83.9-127.93,49.13-75.67-34.78-416.3-235.47-416.3-235.47,0,0-54.14-29.95-99.55,48.7-45.41,78.65-293.22,501.37-293.22,501.37"/>
        <path class="cls-10" d="m4164.39,647.37l-76.72,151.88s-23.2,95.92-179.07,0c-155.87-95.92-410.16-245.73-698.67-216.79-288.52,28.94-412.41,68.91-412.41,68.91,0,0-180,13.69-167.08,226.66,12.92,212.98,42.5,905,42.5,905"/>
        <path class="cls-10" d="m3302.72,1474.8l31.63-173.17s26.45-202.51-219.53-180.56c-245.97,21.95-349.02,61.92-341.35,255.4s16.98,406.57,16.98,406.57"/>
        <line class="cls-10" x1="4284.99" y1="3935.2" x2="4284.99" y2="4123.42"/>
        <line class="cls-10" x1="4353.96" y1="3408.72" x2="4380.63" y2="4113.6"/>
        <line class="cls-10" x1="4521.31" y1="3265.95" x2="4556.19" y2="4104.95"/>
        <rect class="cls-27" x="3940.57" y="625.31" width="263.32" height="1010.39" transform="translate(1057.07 4091.9) rotate(-60)"/>
        <rect class="cls-24" x="3503.27" y="832.46" width="263.32" height="91.14" transform="translate(1057.08 3586.96) rotate(-60)"/>
        <path class="cls-24" d="m3565.8,951.15l-58.99-34.51c-46.63-26.92-62.61-86.55-35.69-133.18,26.92-46.63,86.55-62.61,133.18-35.69l63.28,39.37"/>
        <path class="cls-23" d="m3533.19,856.36l-7.62-4.4c-12.86-7.42-17.27-23.87-9.84-36.73l8.24-14.27c7.43-12.86,23.87-17.27,36.73-9.84l7.62,4.4c12.86,7.42,17.26,23.87,9.84,36.73l-8.24,14.27c-7.42,12.86-23.87,17.27-36.73,9.84"/>
        <rect class="cls-27" x="4450.38" y="1284.47" width="61.36" height="164.16" transform="translate(1057.07 4563.99) rotate(-60)"/>
        <path class="cls-10" d="m3844.35,5342.54l-429.2-752.49s-51.93-123.29-150.05-136.74"/>
        <path class="cls-10" d="m2893.31,4219.36s233.92,194.22,330.2,375.65c96.28,181.43,399.23,711.59,399.23,711.59,0,0,160.97,247.87,163.11,296.06,2.14,48.2,42.12,165.24-387.54,220.33-429.66,55.08-228.19,543.93-19.09,406.23,209.1-137.7,305.45-172.13,305.45-172.13"/>
        <rect class="cls-27" x="3571.54" y="5611.49" width="1349.89" height="231.35" transform="translate(-2294.66 2890.53) rotate(-30)"/>
        <polygon class="cls-29" points="1970.28 4771.39 3701.71 4771.39 4567.42 3271.93 3701.71 1772.47 1970.28 1772.47 1104.57 3271.93 1970.28 4771.39"/>
        <polygon class="cls-8" points="1970.28 4771.39 3701.71 4771.39 4567.42 3271.93 3701.71 1772.47 1970.28 1772.47 1104.57 3271.93 1970.28 4771.39"/>
        <path class="cls-17" d="m2203.85,4328.64l-171.05.18c-59.55,0-107.83,48.28-107.83,107.83s48.28,107.83,107.83,107.83h171.05"/>
        <path class="cls-3" d="m2203.85,4328.64l-171.05.18c-59.55,0-107.83,48.28-107.83,107.83s48.28,107.83,107.83,107.83h171.05"/>
        <rect class="cls-18" x="3103.17" y="1492.54" width="325.04" height="384.2" transform="translate(1044.86 4612.2) rotate(-80.1)"/>
        <rect class="cls-3" x="3103.17" y="1492.54" width="325.04" height="384.2" transform="translate(1044.86 4612.2) rotate(-80.1)"/>
        <polygon class="cls-23" points="5171.58 3019.62 4383.41 3151.55 4361.53 3020.89 5149.71 2888.96 5153.62 2912.32 5171.58 3019.62"/>
        <polygon class="cls-9" points="5171.58 3019.62 4383.41 3151.55 4361.53 3020.89 5149.71 2888.96 5153.62 2912.32 5171.58 3019.62"/>
        <path class="cls-27" d="m5155.48,2942.2s48.04-6.73,58.79-15.94c10.75-9.21,38.38-13.81,38.38-13.81-1.53,90.56,53.73,91.45,53.73,91.45l124.33-33.11c42.98-98.24-41.44-135.08-41.44-135.08l-138.15,16.01s-18.42,22.36-30.7,26.97c-12.28,4.6-72.93,15.74-72.93,15.74"/>
        <path class="cls-3" d="m5155.48,2942.2s48.04-6.73,58.79-15.94c10.75-9.21,38.38-13.81,38.38-13.81-1.53,90.56,53.73,91.45,53.73,91.45l124.33-33.11c42.98-98.24-41.44-135.08-41.44-135.08l-138.15,16.01s-18.42,22.36-30.7,26.97c-12.28,4.6-72.93,15.74-72.93,15.74"/>
        <polyline class="cls-27" points="2176.3 4328.64 3702.42 4328.64 3702.42 4544.48 2176.3 4544.48"/>
        <polyline class="cls-8" points="2176.3 4328.64 3702.42 4328.64 3702.42 4544.48 2176.3 4544.48"/>
        <line class="cls-23" x1="2011.95" y1="4375.55" x2="2045.53" y2="4435.49"/>
        <line class="cls-8" x1="2011.95" y1="4375.55" x2="2045.53" y2="4435.49"/>
        <line class="cls-23" x1="2114.23" y1="4436.38" x2="2045.53" y2="4435.49"/>
        <line class="cls-8" x1="2114.23" y1="4436.38" x2="2045.53" y2="4435.49"/>
        <line class="cls-23" x1="2010.41" y1="4494.54" x2="2045.53" y2="4435.49"/>
        <line class="cls-8" x1="2010.41" y1="4494.54" x2="2045.53" y2="4435.49"/>
        <rect class="cls-31" x="1970.99" y="4662.08" width="1731.42" height="109.94"/>
        <rect class="cls-31" x="1970.99" y="1773.11" width="1731.42" height="109.94"/>
        <rect class="cls-31" x="3222.36" y="3939.84" width="1731.42" height="109.95" transform="translate(-1415.58 5537.78) rotate(-60)"/>
        <rect class="cls-31" x="720.43" y="2495.36" width="1731.42" height="109.95" transform="translate(-1415.58 2648.81) rotate(-60)"/>
        <rect class="cls-31" x="4032.69" y="1684.62" width="109.95" height="1731.42" transform="translate(-727.52 2385.51) rotate(-30)"/>
        <rect class="cls-31" x="1530.77" y="3129.1" width="109.95" height="1731.43" transform="translate(-1784.96 1328.08) rotate(-30)"/>
        <polygon class="cls-8" points="1970.99 4772.03 3702.42 4772.03 4568.13 3272.57 3702.42 1773.11 1970.99 1773.11 1105.28 3272.57 1970.99 4772.03"/>
        <path class="cls-27" d="m2013.74,4434.6c0-20.38-16.53-36.91-36.91-36.91s-36.91,16.53-36.91,36.91,16.53,36.91,36.91,36.91,36.91-16.53,36.91-36.91"/>
        <circle class="cls-8" cx="1976.83" cy="4434.6" r="36.91" transform="translate(-684.82 373.92) rotate(-9.22)"/>
        <path class="cls-27" d="m2116.03,4495.43c0-20.38-16.53-36.91-36.91-36.91s-36.91,16.53-36.91,36.91,16.53,36.91,36.91,36.91,36.91-16.53,36.91-36.91"/>
        <circle class="cls-8" cx="2079.11" cy="4495.43" r="36.91" transform="translate(-1562.06 1137.84) rotate(-22.5)"/>
        <path class="cls-27" d="m2117.56,4377.32c0-20.38-16.53-36.91-36.91-36.91s-36.91,16.53-36.91,36.91,16.53,36.91,36.91,36.91,36.91-16.53,36.91-36.91"/>
        <circle class="cls-8" cx="2080.65" cy="4377.32" r="36.91" transform="translate(-1516.75 1129.43) rotate(-22.5)"/>
        <rect class="cls-21" x="2147.88" y="3124.56" width="512.84" height="1489.51" transform="translate(-1919.67 5303.01) rotate(-76.49)"/>
        <rect class="cls-3" x="2147.88" y="3124.56" width="512.84" height="1489.51" transform="translate(-1919.67 5303.01) rotate(-76.49)"/>
        <rect class="cls-28" x="2360.67" y="2775.1" width="377.28" height="1181.31" transform="translate(-1318.92 5058.1) rotate(-76.49)"/>
        <rect class="cls-3" x="2360.67" y="2775.1" width="377.28" height="1181.31" transform="translate(-1318.92 5058.1) rotate(-76.49)"/>
        <rect class="cls-28" x="3056.41" y="2295.01" width="259.5" height="1334.37" transform="translate(-438.49 5368.05) rotate(-76.49)"/>
        <rect class="cls-3" x="3056.41" y="2295.01" width="259.5" height="1334.37" transform="translate(-438.49 5368.05) rotate(-76.49)"/>
        <rect class="cls-27" x="2970.61" y="1824.06" width="227.18" height="1408.13" transform="translate(-94.57 4936.27) rotate(-76.49)"/>
        <rect class="cls-3" x="2970.61" y="1824.06" width="227.18" height="1408.13" transform="translate(-94.57 4936.27) rotate(-76.49)"/>
        <path class="cls-19" d="m2314.49,2665.01c0,191.71-155.41,347.12-347.12,347.12s-347.12-155.41-347.12-347.12,155.41-347.12,347.12-347.12,347.12,155.41,347.12,347.12"/>
        <circle class="cls-3" cx="1967.37" cy="2665.01" r="347.12" transform="translate(-1308.22 2171.7) rotate(-45)"/>
        <path class="cls-19" d="m4162.64,3626.91c0,191.71-155.41,347.12-347.12,347.12s-347.12-155.41-347.12-347.12,155.41-347.12,347.12-347.12,347.12,155.41,347.12,347.12"/>
        <circle class="cls-3" cx="3815.52" cy="3626.91" r="347.12" transform="translate(-1447.07 3760.28) rotate(-45)"/>
        <rect class="cls-21" x="1891.5" y="3229.36" width="533.99" height="85.13" transform="translate(-1527.2 4606.2) rotate(-76.49)"/>
        <rect class="cls-3" x="1891.5" y="3229.36" width="533.99" height="85.13" transform="translate(-1527.2 4606.2) rotate(-76.49)"/>
        <rect class="cls-21" x="2752.94" y="3438.04" width="529.73" height="85.13" transform="translate(-1071.57 5601.66) rotate(-76.49)"/>
        <rect class="cls-3" x="2752.94" y="3438.04" width="529.73" height="85.13" transform="translate(-1071.57 5601.66) rotate(-76.49)"/>
        <rect class="cls-21" x="2451.34" y="2802.7" width="436.56" height="85.13" transform="translate(-720.64 4776.21) rotate(-76.49)"/>
        <rect class="cls-3" x="2451.34" y="2802.7" width="436.56" height="85.13" transform="translate(-720.64 4776.21) rotate(-76.49)"/>
        <rect class="cls-21" x="3328.6" y="3007.33" width="432.69" height="85.13" transform="translate(-248.8 5784.13) rotate(-76.49)"/>
        <rect class="cls-3" x="3328.6" y="3007.33" width="432.69" height="85.13" transform="translate(-248.8 5784.13) rotate(-76.49)"/>
        <rect class="cls-21" x="2435.99" y="2377.95" width="400.44" height="85.13" transform="translate(-333.26 4418.21) rotate(-76.49)"/>
        <rect class="cls-3" x="2435.99" y="2377.95" width="400.44" height="85.13" transform="translate(-333.26 4418.21) rotate(-76.49)"/>
        <rect class="cls-21" x="3289.95" y="2583.05" width="412.85" height="85.13" transform="translate(126.51 5411.76) rotate(-76.49)"/>
        <rect class="cls-3" x="3289.95" y="2583.05" width="412.85" height="85.13" transform="translate(126.51 5411.76) rotate(-76.49)"/>
        <path class="cls-17" d="m2296.85,4606.19h-69.24c-6.6,0-12-5.4-12-12v-315.63c0-6.6,5.4-12,12-12h69.24c6.6,0,12,5.4,12,12v315.63c0,6.6-5.4,12-12,12"/>
        <rect class="cls-3" x="2215.61" y="4266.56" width="93.24" height="339.63" rx="12" ry="12"/>
        <polygon class="cls-17" points="2277.73 4305.6 2264.04 4315.6 2248.54 4308.74 2246.73 4291.88 2260.42 4281.88 2275.93 4288.75 2277.73 4305.6"/>
        <polygon class="cls-3" points="2277.73 4305.6 2264.04 4315.6 2248.54 4308.74 2246.73 4291.88 2260.42 4281.88 2275.93 4288.75 2277.73 4305.6"/>
        <polygon class="cls-17" points="2272.39 4587.95 2255.55 4589.96 2245.4 4576.38 2252.07 4560.8 2268.91 4558.79 2279.07 4572.36 2272.39 4587.95"/>
        <polygon class="cls-3" points="2272.39 4587.95 2255.55 4589.96 2245.4 4576.38 2252.07 4560.8 2268.91 4558.79 2279.07 4572.36 2272.39 4587.95"/>
        <path class="cls-17" d="m3458.47,4604.8h-69.24c-6.6,0-12-5.4-12-12v-315.63c0-6.6,5.4-12,12-12h69.24c6.6,0,12,5.4,12,12v315.63c0,6.6-5.4,12-12,12"/>
        <rect class="cls-3" x="3377.24" y="4265.17" width="93.24" height="339.63" rx="12" ry="12"/>
        <polygon class="cls-17" points="3439.36 4304.21 3425.66 4314.2 3410.16 4307.34 3408.35 4290.48 3422.05 4280.49 3437.55 4287.35 3439.36 4304.21"/>
        <polygon class="cls-3" points="3439.36 4304.21 3425.66 4314.2 3410.16 4307.34 3408.35 4290.48 3422.05 4280.49 3437.55 4287.35 3439.36 4304.21"/>
        <polygon class="cls-17" points="3434.01 4586.55 3417.18 4588.56 3407.02 4574.99 3413.7 4559.4 3430.53 4557.4 3440.69 4570.97 3434.01 4586.55"/>
        <polygon class="cls-3" points="3434.01 4586.55 3417.18 4588.56 3407.02 4574.99 3413.7 4559.4 3430.53 4557.4 3440.69 4570.97 3434.01 4586.55"/>
        <rect class="cls-21" x="1567.75" y="3704.79" width="667.51" height="85.13" transform="translate(-2186.4 4720.68) rotate(-76.49)"/>
        <rect class="cls-3" x="1567.75" y="3704.79" width="667.51" height="85.13" transform="translate(-2186.4 4720.68) rotate(-76.49)"/>
        <rect class="cls-21" x="2425.66" y="3912.9" width="670.6" height="85.13" transform="translate(-1730.12 5715.82) rotate(-76.49)"/>
        <rect class="cls-3" x="2425.66" y="3912.9" width="670.6" height="85.13" transform="translate(-1730.12 5715.82) rotate(-76.49)"/>
        <polygon class="cls-27" points="1651.29 3073.09 1619.22 3197.7 1692.62 3215.05 1733.95 3353.42 1848.73 3392.53 1934.89 3025.38 1813.01 2999.42 1724.37 3089.94 1651.29 3073.09"/>
        <polygon class="cls-3" points="1651.29 3073.09 1619.22 3197.7 1692.62 3215.05 1733.95 3353.42 1848.73 3392.53 1934.89 3025.38 1813.01 2999.42 1724.37 3089.94 1651.29 3073.09"/>
        <polygon class="cls-21" points="3167.69 3320.34 3296.32 3350.49 3278.25 3424.15 3206.79 3715.5 3079.54 3687.18 3167.69 3320.34"/>
        <polygon class="cls-3" points="3167.69 3320.34 3296.32 3350.49 3278.25 3424.15 3206.79 3715.5 3079.54 3687.18 3167.69 3320.34"/>
        <path class="cls-25" d="m3360.21,3609.85l-59.76-14.36c-20.21-4.86-32.65-25.17-27.79-45.38l2-8.33c4.85-20.21,25.17-32.65,45.38-27.8l59.76,14.36c20.21,4.86,32.65,25.17,27.8,45.38l-2,8.33c-4.86,20.21-25.17,32.65-45.38,27.8"/>
        <path class="cls-3" d="m3360.21,3609.85l-59.76-14.36c-20.21-4.86-32.65-25.17-27.79-45.38l2-8.33c4.85-20.21,25.17-32.65,45.38-27.8l59.76,14.36c20.21,4.86,32.65,25.17,27.8,45.38l-2,8.33c-4.86,20.21-25.17,32.65-45.38,27.8Z"/>
        <polygon class="cls-27" points="4088.07 3124.91 4065.79 3212.49 4014.5 3202.17 3942.13 3277.14 3859.23 3261.04 3922.15 3000.28 4008.86 3024.06 4035.65 3111.46 4088.07 3124.91"/>
        <polygon class="cls-3" points="4088.07 3124.91 4065.79 3212.49 4014.5 3202.17 3942.13 3277.14 3859.23 3261.04 3922.15 3000.28 4008.86 3024.06 4035.65 3111.46 4088.07 3124.91"/>
        <path class="cls-25" d="m2350.15,2794.57l41.63,9.59c20.25,4.66,40.45-7.97,45.12-28.22l1.92-8.35c4.67-20.25-7.97-40.45-28.22-45.11l-41.64-9.59c-20.25-4.66-40.45,7.97-45.11,28.23l-1.92,8.35c-4.66,20.25,7.97,40.45,28.22,45.11"/>
        <path class="cls-3" d="m2350.15,2794.57l41.63,9.59c20.25,4.66,40.45-7.97,45.12-28.22l1.92-8.35c4.67-20.25-7.97-40.45-28.22-45.11l-41.64-9.59c-20.25-4.66-40.45,7.97-45.11,28.23l-1.92,8.35c-4.66,20.25,7.97,40.45,28.22,45.11Z"/>
        <rect class="cls-21" x="3734.2" y="3093.32" width="261.9" height="61.37" transform="translate(-75.46 6152.28) rotate(-76.49)"/>
        <rect class="cls-3" x="3734.2" y="3093.32" width="261.9" height="61.37" transform="translate(-75.46 6152.28) rotate(-76.49)"/>
        <rect class="cls-21" x="2368.35" y="2753.8" width="259.4" height="86.16" transform="translate(-805.06 4572.33) rotate(-76.49)"/>
        <rect class="cls-3" x="2368.35" y="2753.8" width="259.4" height="86.16" transform="translate(-805.06 4572.33) rotate(-76.49)"/>
        <rect class="cls-21" x="1745.37" y="3175.24" width="379.04" height="86.16" transform="translate(-1646.42 4347.73) rotate(-76.49)"/>
        <rect class="cls-3" x="1745.37" y="3175.24" width="379.04" height="86.16" transform="translate(-1646.42 4347.73) rotate(-76.49)"/>
        <rect class="cls-21" x="3218.25" y="3477.45" width="715.84" height="221.98" transform="translate(-748.5 6227.2) rotate(-76.49)"/>
        <rect class="cls-3" x="3218.25" y="3477.45" width="715.84" height="221.98" transform="translate(-748.5 6227.2) rotate(-76.49)"/>
        <rect class="cls-21" x="1919.39" y="2609.02" width="557.55" height="221.98" transform="translate(-960.15 4221.81) rotate(-76.49)"/>
        <rect class="cls-3" x="1919.39" y="2609.02" width="557.55" height="221.98" transform="translate(-960.15 4221.81) rotate(-76.49)"/>
        <path class="cls-21" d="m1651.29,3073.09l-44.16-12.69c-34.85-8.69-70.14,12.51-78.83,47.36-8.69,34.85,12.51,70.14,47.36,78.84l43.57,11.1"/>
        <path class="cls-3" d="m1651.29,3073.09l-44.16-12.69c-34.85-8.69-70.14,12.51-78.83,47.36-8.69,34.85,12.51,70.14,47.36,78.84l43.57,11.1"/>
        <path class="cls-2" d="m1595.03,3077.99l-195.93-61.43c-31.46-9.86-62.89,1.06-70.21,24.41s12.25,50.26,43.7,60.12l195.93,61.43"/>
        <path class="cls-21" d="m1528.29,3107.76c-8.69,34.85,12.51,70.14,47.36,78.84l43.57,11.1"/>
        <path class="cls-3" d="m1528.29,3107.76c-8.69,34.85,12.51,70.14,47.36,78.84l43.57,11.1"/>
        <path class="cls-23" d="m1599.71,3118.14c0,11.97-9.7,21.67-21.67,21.67s-21.67-9.7-21.67-21.67,9.7-21.67,21.67-21.67,21.67,9.7,21.67,21.67"/>
        <circle class="cls-3" cx="1578.04" cy="3118.14" r="21.67" transform="translate(-1906.64 3382.8) rotate(-67.5)"/>
      </g>
      <g class="cls-40">
        <line class="cls-2" x1="1567.31" y1="3150.7" x2="1603.06" y2="3042.52"/>
      </g>
      <g class="cls-35">
        <rect class="cls-21" x="4323.44" y="2991.85" width="17.07" height="474.76" transform="translate(179.97 6686.81) rotate(-76.49)"/>
        <rect class="cls-3" x="4323.44" y="2991.85" width="17.07" height="474.76" transform="translate(179.97 6686.81) rotate(-76.49)"/>
        <path class="cls-22" d="m1862.69,4032.91c0,17.52-14.2,31.72-31.72,31.72s-31.72-14.2-31.72-31.72,14.2-31.72,31.72-31.72,31.72,14.2,31.72,31.72"/>
        <path class="cls-3" d="m1862.69,4032.91c0,17.52-14.2,31.72-31.72,31.72s-31.72-14.2-31.72-31.72,14.2-31.72,31.72-31.72,31.72,14.2,31.72,31.72Z"/>
        <polygon class="cls-22" points="1850.19 4041.42 1833.21 4053.81 1813.98 4045.3 1811.74 4024.4 1828.72 4012 1847.95 4020.51 1850.19 4041.42"/>
        <polygon class="cls-3" points="1850.19 4041.42 1833.21 4053.81 1813.98 4045.3 1811.74 4024.4 1828.72 4012 1847.95 4020.51 1850.19 4041.42"/>
        <path class="cls-22" d="m1999.67,3463.23c0,17.52-14.2,31.72-31.72,31.72s-31.72-14.2-31.72-31.72,14.2-31.72,31.72-31.72,31.72,14.2,31.72,31.72"/>
        <path class="cls-3" d="m1999.67,3463.23c0,17.52-14.2,31.72-31.72,31.72s-31.72-14.2-31.72-31.72,14.2-31.72,31.72-31.72,31.72,14.2,31.72,31.72Z"/>
        <polygon class="cls-22" points="1987.17 3471.74 1970.19 3484.14 1950.96 3475.63 1948.72 3454.72 1965.7 3442.33 1984.93 3450.84 1987.17 3471.74"/>
        <polygon class="cls-3" points="1987.17 3471.74 1970.19 3484.14 1950.96 3475.63 1948.72 3454.72 1965.7 3442.33 1984.93 3450.84 1987.17 3471.74"/>
        <path class="cls-22" d="m2134.66,3494.96c0,17.52-14.2,31.72-31.72,31.72s-31.72-14.2-31.72-31.72,14.2-31.72,31.72-31.72,31.72,14.2,31.72,31.72"/>
        <path class="cls-3" d="m2134.66,3494.96c0,17.52-14.2,31.72-31.72,31.72s-31.72-14.2-31.72-31.72,14.2-31.72,31.72-31.72,31.72,14.2,31.72,31.72Z"/>
        <polygon class="cls-22" points="2122.17 3503.47 2105.18 3515.86 2085.96 3507.35 2083.71 3486.44 2100.7 3474.05 2119.92 3482.56 2122.17 3503.47"/>
        <polygon class="cls-3" points="2122.17 3503.47 2105.18 3515.86 2085.96 3507.35 2083.71 3486.44 2100.7 3474.05 2119.92 3482.56 2122.17 3503.47"/>
        <path class="cls-22" d="m2723.92,4241.61c0,17.52-14.2,31.72-31.72,31.72s-31.72-14.2-31.72-31.72,14.2-31.72,31.72-31.72,31.72,14.2,31.72,31.72"/>
        <path class="cls-3" d="m2723.92,4241.61c0,17.52-14.2,31.72-31.72,31.72s-31.72-14.2-31.72-31.72,14.2-31.72,31.72-31.72,31.72,14.2,31.72,31.72Z"/>
        <polygon class="cls-22" points="2711.42 4250.12 2694.44 4262.52 2675.21 4254.01 2672.97 4233.1 2689.95 4220.71 2709.18 4229.22 2711.42 4250.12"/>
        <polygon class="cls-3" points="2711.42 4250.12 2694.44 4262.52 2675.21 4254.01 2672.97 4233.1 2689.95 4220.71 2709.18 4229.22 2711.42 4250.12"/>
        <path class="cls-22" d="m2861.16,3670.48c0,17.52-14.2,31.72-31.72,31.72s-31.72-14.2-31.72-31.72,14.2-31.72,31.72-31.72,31.72,14.2,31.72,31.72"/>
        <circle class="cls-3" cx="2829.44" cy="3670.48" r="31.72" transform="translate(-1392.92 5580.93) rotate(-76.72)"/>
        <polygon class="cls-22" points="2848.67 3678.99 2831.68 3691.39 2812.46 3682.88 2810.21 3661.97 2827.2 3649.58 2846.42 3658.09 2848.67 3678.99"/>
        <polygon class="cls-3" points="2848.67 3678.99 2831.68 3691.39 2812.46 3682.88 2810.21 3661.97 2827.2 3649.58 2846.42 3658.09 2848.67 3678.99"/>
        <path class="cls-22" d="m2995.83,3699.38c0,17.52-14.2,31.72-31.72,31.72s-31.72-14.2-31.72-31.72,14.2-31.72,31.72-31.72,31.72,14.2,31.72,31.72"/>
        <path class="cls-3" d="m2995.83,3699.38c0,17.52-14.2,31.72-31.72,31.72s-31.72-14.2-31.72-31.72,14.2-31.72,31.72-31.72,31.72,14.2,31.72,31.72Z"/>
        <polygon class="cls-22" points="2983.33 3707.89 2966.35 3720.29 2947.12 3711.78 2944.88 3690.87 2961.86 3678.48 2981.09 3686.99 2983.33 3707.89"/>
        <polygon class="cls-3" points="2983.33 3707.89 2966.35 3720.29 2947.12 3711.78 2944.88 3690.87 2961.86 3678.48 2981.09 3686.99 2983.33 3707.89"/>
        <path class="cls-22" d="m3102.58,3259.82c0,17.52-14.2,31.72-31.72,31.72s-31.72-14.2-31.72-31.72,14.2-31.72,31.72-31.72,31.72,14.2,31.72,31.72"/>
        <path class="cls-3" d="m3102.58,3259.82c0,17.52-14.2,31.72-31.72,31.72s-31.72-14.2-31.72-31.72,14.2-31.72,31.72-31.72,31.72,14.2,31.72,31.72Z"/>
        <polygon class="cls-22" points="3090.09 3268.33 3073.1 3280.73 3053.88 3272.21 3051.63 3251.31 3068.62 3238.91 3087.84 3247.42 3090.09 3268.33"/>
        <polygon class="cls-3" points="3090.09 3268.33 3073.1 3280.73 3053.88 3272.21 3051.63 3251.31 3068.62 3238.91 3087.84 3247.42 3090.09 3268.33"/>
        <path class="cls-22" d="m2242.74,3053.34c0,17.52-14.2,31.72-31.72,31.72s-31.72-14.2-31.72-31.72,14.2-31.72,31.72-31.72,31.72,14.2,31.72,31.72"/>
        <path class="cls-3" d="m2242.74,3053.34c0,17.52-14.2,31.72-31.72,31.72s-31.72-14.2-31.72-31.72,14.2-31.72,31.72-31.72,31.72,14.2,31.72,31.72Z"/>
        <polygon class="cls-22" points="2230.24 3061.85 2213.26 3074.25 2194.03 3065.73 2191.79 3044.83 2208.77 3032.43 2228 3040.94 2230.24 3061.85"/>
        <polygon class="cls-3" points="2230.24 3061.85 2213.26 3074.25 2194.03 3065.73 2191.79 3044.83 2208.77 3032.43 2228 3040.94 2230.24 3061.85"/>
        <path class="cls-22" d="m2662.16,3008.34c0,17.52-14.2,31.72-31.72,31.72s-31.72-14.2-31.72-31.72,14.2-31.72,31.72-31.72,31.72,14.2,31.72,31.72"/>
        <path class="cls-3" d="m2662.16,3008.34c0,17.52-14.2,31.72-31.72,31.72s-31.72-14.2-31.72-31.72,14.2-31.72,31.72-31.72,31.72,14.2,31.72,31.72Z"/>
        <polygon class="cls-22" points="2649.66 3016.85 2632.68 3029.24 2613.45 3020.73 2611.21 2999.83 2628.19 2987.43 2647.42 2995.94 2649.66 3016.85"/>
        <polygon class="cls-3" points="2649.66 3016.85 2632.68 3029.24 2613.45 3020.73 2611.21 2999.83 2628.19 2987.43 2647.42 2995.94 2649.66 3016.85"/>
        <path class="cls-22" d="m2742.85,2672.55c0,17.52-14.2,31.72-31.72,31.72s-31.72-14.2-31.72-31.72,14.2-31.72,31.72-31.72,31.72,14.2,31.72,31.72"/>
        <path class="cls-3" d="m2742.85,2672.55c0,17.52-14.2,31.72-31.72,31.72s-31.72-14.2-31.72-31.72,14.2-31.72,31.72-31.72,31.72,14.2,31.72,31.72Z"/>
        <polygon class="cls-22" points="2730.35 2681.06 2713.37 2693.46 2694.14 2684.95 2691.9 2664.04 2708.88 2651.65 2728.11 2660.16 2730.35 2681.06"/>
        <polygon class="cls-3" points="2730.35 2681.06 2713.37 2693.46 2694.14 2684.95 2691.9 2664.04 2708.88 2651.65 2728.11 2660.16 2730.35 2681.06"/>
        <path class="cls-22" d="m3537.43,3213.16c0,17.52-14.2,31.72-31.72,31.72s-31.72-14.2-31.72-31.72,14.2-31.72,31.72-31.72,31.72,14.2,31.72,31.72"/>
        <path class="cls-3" d="m3537.43,3213.16c0,17.52-14.2,31.72-31.72,31.72s-31.72-14.2-31.72-31.72,14.2-31.72,31.72-31.72,31.72,14.2,31.72,31.72Z"/>
        <polygon class="cls-22" points="3524.94 3221.67 3507.95 3234.07 3488.73 3225.56 3486.48 3204.65 3503.47 3192.26 3522.69 3200.77 3524.94 3221.67"/>
        <polygon class="cls-3" points="3524.94 3221.67 3507.95 3234.07 3488.73 3225.56 3486.48 3204.65 3503.47 3192.26 3522.69 3200.77 3524.94 3221.67"/>
        <path class="cls-22" d="m3616.73,2883.16c0,17.52-14.2,31.72-31.72,31.72s-31.72-14.2-31.72-31.72,14.2-31.72,31.72-31.72,31.72,14.2,31.72,31.72"/>
        <path class="cls-3" d="m3616.73,2883.16c0,17.52-14.2,31.72-31.72,31.72s-31.72-14.2-31.72-31.72,14.2-31.72,31.72-31.72,31.72,14.2,31.72,31.72Z"/>
        <polygon class="cls-22" points="3604.24 2891.67 3587.25 2904.06 3568.03 2895.55 3565.78 2874.65 3582.77 2862.25 3601.99 2870.76 3604.24 2891.67"/>
        <polygon class="cls-3" points="3604.24 2891.67 3587.25 2904.06 3568.03 2895.55 3565.78 2874.65 3582.77 2862.25 3601.99 2870.76 3604.24 2891.67"/>
        <path class="cls-22" d="m3491.12,2779.5c0,17.52-14.2,31.72-31.72,31.72s-31.72-14.2-31.72-31.72,14.2-31.72,31.72-31.72,31.72,14.2,31.72,31.72"/>
        <path class="cls-3" d="m3491.12,2779.5c0,17.52-14.2,31.72-31.72,31.72s-31.72-14.2-31.72-31.72,14.2-31.72,31.72-31.72,31.72,14.2,31.72,31.72Z"/>
        <polygon class="cls-22" points="3478.62 2788.01 3461.64 2800.41 3442.41 2791.9 3440.17 2770.99 3457.16 2758.6 3476.38 2767.11 3478.62 2788.01"/>
        <polygon class="cls-3" points="3478.62 2788.01 3461.64 2800.41 3442.41 2791.9 3440.17 2770.99 3457.16 2758.6 3476.38 2767.11 3478.62 2788.01"/>
        <path class="cls-22" d="m3564.3,2474.95c0,17.52-14.2,31.72-31.72,31.72s-31.72-14.2-31.72-31.72,14.2-31.72,31.72-31.72,31.72,14.2,31.72,31.72"/>
        <path class="cls-3" d="m3564.3,2474.95c0,17.52-14.2,31.72-31.72,31.72s-31.72-14.2-31.72-31.72,14.2-31.72,31.72-31.72,31.72,14.2,31.72,31.72Z"/>
        <polygon class="cls-22" points="3551.81 2483.46 3534.83 2495.85 3515.6 2487.34 3513.36 2466.44 3530.34 2454.04 3549.57 2462.55 3551.81 2483.46"/>
        <polygon class="cls-3" points="3551.81 2483.46 3534.83 2495.85 3515.6 2487.34 3513.36 2466.44 3530.34 2454.04 3549.57 2462.55 3551.81 2483.46"/>
        <path class="cls-22" d="m2704.66,2267.65c0,17.52-14.2,31.72-31.72,31.72s-31.72-14.2-31.72-31.72,14.2-31.72,31.72-31.72,31.72,14.2,31.72,31.72"/>
        <circle class="cls-3" cx="2672.94" cy="2267.65" r="31.72" transform="translate(-148.16 4348.09) rotate(-76.72)"/>
        <polygon class="cls-22" points="2692.16 2276.16 2675.18 2288.55 2655.95 2280.04 2653.71 2259.14 2670.7 2246.74 2689.92 2255.25 2692.16 2276.16"/>
        <polygon class="cls-3" points="2692.16 2276.16 2675.18 2288.55 2655.95 2280.04 2653.71 2259.14 2670.7 2246.74 2689.92 2255.25 2692.16 2276.16"/>
        <path class="cls-22" d="m2631.74,2571.1c0,17.52-14.2,31.72-31.72,31.72s-31.72-14.2-31.72-31.72,14.2-31.72,31.72-31.72,31.72,14.2,31.72,31.72"/>
        <path class="cls-3" d="m2631.74,2571.1c0,17.52-14.2,31.72-31.72,31.72s-31.72-14.2-31.72-31.72,14.2-31.72,31.72-31.72,31.72,14.2,31.72,31.72Z"/>
        <polygon class="cls-22" points="2619.24 2579.61 2602.26 2592.01 2583.03 2583.5 2580.79 2562.59 2597.78 2550.2 2617 2558.71 2619.24 2579.61"/>
        <polygon class="cls-3" points="2619.24 2579.61 2602.26 2592.01 2583.03 2583.5 2580.79 2562.59 2597.78 2550.2 2617 2558.71 2619.24 2579.61"/>
        <rect class="cls-18" x="3264.08" y="1289.76" width="48.66" height="515.32" transform="translate(1198.85 4520.96) rotate(-80.1)"/>
        <rect class="cls-3" x="3264.08" y="1289.76" width="48.66" height="515.32" transform="translate(1198.85 4520.96) rotate(-80.1)"/>
        <rect class="cls-27" x="3266.03" y="1233.87" width="64.28" height="515.32" transform="translate(1261.99 4484.28) rotate(-80.1)"/>
        <rect class="cls-3" x="3266.03" y="1233.87" width="64.28" height="515.32" transform="translate(1261.99 4484.28) rotate(-80.1)"/>
        <rect class="cls-30" x="3804.15" y="2593.38" width="53.1" height="99.82" transform="translate(365.55 5750.37) rotate(-76.49)"/>
        <rect class="cls-1" x="3804.15" y="2593.38" width="53.1" height="99.82" transform="translate(365.55 5750.37) rotate(-76.49)"/>
        <rect class="cls-30" x="3788.07" y="2660.32" width="53.1" height="99.82" transform="translate(288.13 5786.03) rotate(-76.49)"/>
        <rect class="cls-1" x="3788.07" y="2660.32" width="53.1" height="99.82" transform="translate(288.13 5786.03) rotate(-76.49)"/>
        <rect class="cls-30" x="3771.98" y="2727.27" width="53.1" height="99.82" transform="translate(210.71 5821.7) rotate(-76.49)"/>
        <rect class="cls-1" x="3771.98" y="2727.27" width="53.1" height="99.82" transform="translate(210.71 5821.7) rotate(-76.49)"/>
        <path class="cls-11" d="m3877.69,2657.56s273.26,72.52,184.39-86.17c-88.87-158.69-254.6-339.62-254.6-339.62"/>
        <path class="cls-11" d="m3862.62,2721.5s273.26,82.72,184.39-98.28c-88.87-181-254.6-387.35-254.6-387.35"/>
        <path class="cls-11" d="m3844.57,2790.27s348,92.91,234.83-110.39c-113.18-203.3-324.24-435.08-324.24-435.08"/>
        <path class="cls-21" d="m3822.88,2221.21c0,82.42-66.81,149.23-149.23,149.23s-149.23-66.81-149.23-149.23,66.81-149.23,149.23-149.23,149.23,66.81,149.23,149.23"/>
        <circle class="cls-3" cx="3673.65" cy="2221.21" r="149.23" transform="translate(-494.64 3248.24) rotate(-45)"/>
        <path class="cls-27" d="m3822.88,2269.6c0,35.36-28.66,64.02-64.02,64.02s-64.02-28.66-64.02-64.02,28.66-64.02,64.02-64.02,64.02,28.66,64.02,64.02"/>
        <circle class="cls-3" cx="3758.85" cy="2269.6" r="64.02" transform="translate(686.37 5406.45) rotate(-76.72)"/>
        <path class="cls-27" d="m3652.47,2273.85c0,35.36-28.66,64.02-64.02,64.02s-64.02-28.66-64.02-64.02,28.66-64.02,64.02-64.02,64.02,28.66,64.02,64.02"/>
        <circle class="cls-3" cx="3588.44" cy="2273.85" r="64.02" transform="translate(550.96 5243.88) rotate(-76.72)"/>
        <path class="cls-27" d="m3737.67,2129.56c0,35.36-28.66,64.02-64.02,64.02s-64.02-28.66-64.02-64.02,28.66-64.02,64.02-64.02,64.02,28.66,64.02,64.02"/>
        <circle class="cls-3" cx="3673.65" cy="2129.56" r="64.02" transform="translate(757.03 5215.66) rotate(-76.72)"/>
        <path class="cls-6" d="m1884.48,2768.9l-76.6-13.67c-6.5-1.16-10.86-7.43-9.7-13.92l3.59-20.1c1.16-6.5,7.43-10.86,13.92-9.7l76.6,13.67c6.5,1.16,10.86,7.43,9.7,13.92l-3.59,20.1c-1.16,6.5-7.43,10.86-13.92,9.7Z"/>
        <path class="cls-6" d="m2039.1,2769.07l-77.81-.76c-6.6-.06-11.95-5.52-11.88-12.12l.2-20.42c.07-6.6,5.52-11.95,12.12-11.88l77.81.76c6.6.06,11.95,5.52,11.88,12.12l-.2,20.42c-.06,6.6-5.52,11.95-12.12,11.88Z"/>
        <path class="cls-6" d="m1909.57,2632.22l-76.6-13.67c-6.5-1.16-10.86-7.43-9.7-13.92l3.59-20.1c1.16-6.5,7.43-10.86,13.92-9.7l76.6,13.67c6.5,1.16,10.86,7.43,9.7,13.92l-3.59,20.1c-1.16,6.5-7.43,10.86-13.92,9.7Z"/>
        <path class="cls-6" d="m2053.87,2673.33l-74.88-21.14c-6.35-1.79-10.08-8.46-8.29-14.81l5.55-19.65c1.79-6.35,8.46-10.08,14.81-8.29l74.88,21.14c6.35,1.79,10.08,8.46,8.29,14.81l-5.55,19.65c-1.79,6.35-8.46,10.08-14.81,8.29Z"/>
        <path class="cls-6" d="m1776,2623.35l-13.67,76.6c-1.16,6.5-7.43,10.86-13.92,9.7l-20.1-3.59c-6.5-1.16-10.86-7.42-9.7-13.92l13.67-76.6c1.16-6.5,7.43-10.86,13.92-9.7l20.1,3.59c6.5,1.16,10.86,7.43,9.7,13.92Z"/>
        <path class="cls-6" d="m1828.59,2734.05l-84.85-54.99c-.16-.1-.21-.32-.1-.48.1-.16.32-.21.48-.1l84.85,54.99c.16.1.21.32.1.48-.1.16-.32.21-.48.1Z"/>
        <path class="cls-6" d="m1847.9,2599.31l-95.09,34.38c-.18.06-.38-.03-.44-.21-.06-.18.03-.38.21-.44l95.09-34.38c.18-.06.38.03.44.21.07.18-.03.38-.21.44Z"/>
        <path class="cls-6" d="m1997.15,2634.6l-97.31-27.47c-.18-.05-.29-.25-.24-.43.05-.18.24-.29.43-.24l97.31,27.47c.18.05.29.25.24.43-.05.18-.24.29-.43.24Z"/>
        <path class="cls-6" d="m1980.45,2746.63l-101.11-.99c-.19,0-.35-.16-.34-.35,0-.19.16-.34.35-.34l101.11.99c.19,0,.34.16.34.35,0,.19-.16.35-.35.34Z"/>
        <path class="cls-6" d="m2134.16,2672.92l-97.31-27.47c-.18-.05-.29-.25-.24-.43.05-.18.24-.29.43-.24l97.31,27.47c.18.05.29.25.24.43-.05.18-.24.29-.43.24Z"/>
        <path class="cls-6" d="m2116.48,2747.27l-101.11-.99c-.19,0-.34-.16-.34-.35,0-.19.16-.34.35-.34l101.11.99c.19,0,.34.16.34.35,0,.19-.16.35-.35.34Z"/>
        <path class="cls-6" d="m2181.96,2770.47l-77.81-.76c-6.6-.06-11.95-5.52-11.88-12.12l.2-20.42c.06-6.6,5.52-11.95,12.12-11.88l77.81.76c6.6.06,11.95,5.52,11.88,12.12l-.2,20.42c-.07,6.6-5.52,11.95-12.12,11.88Z"/>
        <path class="cls-6" d="m2191.36,2712.15l-74.88-21.14c-6.35-1.79-10.08-8.46-8.29-14.81l5.55-19.65c1.79-6.35,8.46-10.08,14.81-8.29l74.88,21.14c6.35,1.79,10.08,8.46,8.29,14.81l-5.55,19.65c-1.79,6.35-8.46,10.08-14.81,8.29Z"/>
        <path class="cls-6" d="m2282.55,2716.28l-97.31-27.47c-.18-.05-.29-.25-.24-.43.05-.18.24-.29.43-.24l97.31,27.47c.18.05.29.25.24.43-.05.18-.24.29-.43.24Z"/>
        <path class="cls-6" d="m2271.04,2750.2l-101.11-.99c-.19,0-.35-.16-.34-.35,0-.19.16-.34.35-.34l101.11.99c.19,0,.34.16.34.35,0,.19-.16.35-.35.34Z"/>
        <path class="cls-7" d="m2375.85,2722.57l-23.61-4.96c-14.49-35.25-53.82-35.52-53.82-35.52-32.87-5.87-64.27,16.02-70.13,48.89-5.87,32.87,16.02,64.27,48.89,70.13,0,0,50.07,10.78,62.1-10.83l23.61,4.96"/>
        <path class="cls-25" d="m2436.9,2775.94l1.92-8.35c4.66-20.25-7.97-40.45-28.22-45.11l-41.64-9.59c-20.25-4.67-40.45,7.97-45.11,28.22l-1.92,8.35"/>
        <path class="cls-3" d="m2436.9,2775.94l1.92-8.35c4.66-20.25-7.97-40.45-28.22-45.11l-41.64-9.59c-20.25-4.67-40.45,7.97-45.11,28.22l-1.92,8.35"/>
        <path class="cls-6" d="m3827.64,3552.82l76.6,13.67c6.5,1.16,10.86,7.43,9.7,13.92l-3.59,20.1c-1.16,6.5-7.42,10.86-13.92,9.7l-76.6-13.67c-6.5-1.16-10.86-7.43-9.7-13.92l3.59-20.1c1.16-6.5,7.43-10.86,13.92-9.7Z"/>
        <path class="cls-6" d="m3673.02,3552.65l77.8.76c6.6.06,11.95,5.52,11.88,12.12l-.2,20.42c-.06,6.6-5.52,11.95-12.12,11.88l-77.81-.76c-6.6-.06-11.95-5.52-11.88-12.12l.2-20.42c.07-6.6,5.52-11.95,12.12-11.88Z"/>
        <path class="cls-6" d="m3802.54,3689.49l76.6,13.67c6.5,1.16,10.86,7.43,9.7,13.92l-3.59,20.1c-1.16,6.5-7.42,10.86-13.92,9.7l-76.6-13.67c-6.5-1.16-10.86-7.43-9.7-13.92l3.59-20.1c1.16-6.5,7.43-10.86,13.92-9.7Z"/>
        <path class="cls-6" d="m3658.25,3648.39l74.88,21.14c6.35,1.79,10.08,8.46,8.29,14.81l-5.55,19.65c-1.79,6.35-8.46,10.08-14.81,8.29l-74.88-21.14c-6.35-1.79-10.08-8.46-8.29-14.81l5.55-19.65c1.79-6.35,8.46-10.08,14.81-8.29Z"/>
        <path class="cls-6" d="m3936.12,3698.37l13.67-76.6c1.16-6.5,7.43-10.86,13.92-9.7l20.1,3.59c6.5,1.16,10.86,7.43,9.7,13.92l-13.67,76.6c-1.16,6.5-7.43,10.86-13.92,9.7l-20.1-3.59c-6.5-1.16-10.86-7.43-9.7-13.92Z"/>
        <path class="cls-6" d="m3883.53,3587.67l84.85,54.99c.16.1.21.32.1.48-.1.16-.32.21-.48.1l-84.85-54.99c-.16-.1-.21-.32-.1-.48.1-.16.32-.21.48-.1Z"/>
        <path class="cls-6" d="m3864.21,3722.41l95.09-34.38c.18-.06.38.03.45.21.06.18-.03.38-.21.44l-95.09,34.38c-.18.06-.38-.03-.44-.21-.07-.18.03-.38.21-.44Z"/>
        <path class="cls-6" d="m3714.97,3687.12l97.31,27.47c.18.05.29.25.24.43-.05.18-.24.29-.43.24l-97.31-27.47c-.18-.05-.29-.25-.24-.43.05-.18.24-.29.43-.24Z"/>
        <path class="cls-6" d="m3731.67,3575.09l101.11.99c.19,0,.35.16.34.35,0,.19-.16.34-.35.34l-101.11-.99c-.19,0-.34-.16-.34-.35,0-.19.16-.35.35-.34Z"/>
        <path class="cls-6" d="m3577.96,3648.8l97.31,27.47c.18.05.29.25.24.43-.05.18-.24.29-.43.24l-97.31-27.47c-.18-.05-.29-.25-.24-.43.05-.18.24-.29.43-.24Z"/>
        <path class="cls-6" d="m3595.64,3574.45l101.11.99c.19,0,.35.16.34.35,0,.19-.16.34-.35.34l-101.11-.99c-.19,0-.34-.16-.34-.35,0-.19.16-.35.35-.34Z"/>
        <path class="cls-6" d="m3530.16,3551.25l77.8.76c6.6.06,11.95,5.52,11.88,12.12l-.2,20.42c-.06,6.6-5.52,11.95-12.12,11.88l-77.81-.76c-6.6-.06-11.95-5.52-11.88-12.12l.2-20.42c.07-6.6,5.52-11.95,12.12-11.88Z"/>
        <path class="cls-6" d="m3520.76,3609.57l74.88,21.14c6.35,1.79,10.08,8.46,8.29,14.81l-5.55,19.65c-1.79,6.35-8.46,10.08-14.81,8.29l-74.88-21.14c-6.35-1.79-10.08-8.46-8.29-14.81l5.55-19.65c1.79-6.35,8.46-10.08,14.81-8.29Z"/>
        <path class="cls-6" d="m3429.57,3605.43l97.31,27.47c.18.05.29.25.24.43-.05.18-.24.29-.43.24l-97.31-27.47c-.18-.05-.29-.25-.24-.43.05-.18.24-.29.43-.24Z"/>
        <path class="cls-6" d="m3441.07,3571.52l101.11.99c.19,0,.35.16.34.35,0,.19-.16.34-.35.34l-101.11-.99c-.19,0-.34-.16-.34-.35,0-.19.16-.35.35-.34Z"/>
        <path class="cls-7" d="m3336.26,3599.15l23.61,4.96c14.49,35.25,53.82,35.52,53.82,35.52,32.87,5.87,64.27-16.02,70.13-48.89,5.87-32.87-16.02-64.27-48.89-70.13,0,0-50.07-10.78-62.1,10.83l-23.61-4.96"/>
        <path class="cls-25" d="m3273.4,3550.29l2-8.33c4.86-20.21,25.17-32.65,45.38-27.8l59.76,14.36c20.21,4.86,32.65,25.17,27.8,45.38l-2,8.33"/>
        <path class="cls-3" d="m3273.4,3550.29l2-8.33c4.86-20.21,25.17-32.65,45.38-27.8l59.76,14.36c20.21,4.86,32.65,25.17,27.8,45.38l-2,8.33"/>
        <rect class="cls-27" x="3171.62" y="3503.07" width="231" height="72.23" transform="translate(-922.12 5908.44) rotate(-76.49)"/>
        <rect class="cls-3" x="3171.62" y="3503.07" width="231" height="72.23" transform="translate(-922.12 5908.44) rotate(-76.49)"/>
        <rect class="cls-27" x="2346.96" y="2750.83" width="167.56" height="52.26" transform="translate(-837.3 4491.57) rotate(-76.49)"/>
        <rect class="cls-3" x="2346.96" y="2750.83" width="167.56" height="52.26" transform="translate(-837.3 4491.57) rotate(-76.49)"/>
      </g>
      <text class="cls-44" transform="translate(2220.49 2571.1)"><tspan x="0" y="0">1/4</tspan><tspan class="cls-14" x="44.45" y="0">”</tspan><tspan x="53.15" y="0" xml:space="preserve"> galv</tspan></text>
      <text class="cls-44" transform="translate(2220.49 2610.06)"><tspan x="0" y="0" xml:space="preserve"> shac</tspan><tspan class="cls-49" x="67.95" y="0">k</tspan><tspan class="cls-34" x="83.7" y="0">le</tspan></text>
      <g class="cls-48">
        <line class="cls-27" x1="2292.61" y1="2680.2" x2="2283.9" y2="2620.52"/>
        <line class="cls-12" x1="2292.61" y1="2680.2" x2="2292.17" y2="2677.23"/>
        <line class="cls-5" x1="2291.3" y1="2671.26" x2="2284.77" y2="2626.48"/>
        <line class="cls-12" x1="2284.33" y1="2623.49" x2="2283.9" y2="2620.52"/>
      </g>
      <text class="cls-44" transform="translate(1805.3 2861.18)"><tspan x="0" y="0">3/8</tspan><tspan class="cls-14" x="44.45" y="0">”</tspan><tspan x="53.15" y="0" xml:space="preserve"> gal</tspan><tspan class="cls-33" x="101.49" y="0">v</tspan><tspan class="cls-34" x="115.87" y="0">. chain</tspan></text>
      <text class="cls-44" transform="translate(1846.92 2900.14)"><tspan x="0" y="0">(15 links)</tspan></text>
      <g class="cls-41">
        <line class="cls-27" x1="1895.78" y1="2826.71" x2="1887.08" y2="2767.04"/>
        <line class="cls-12" x1="1895.78" y1="2826.71" x2="1895.35" y2="2823.74"/>
        <line class="cls-5" x1="1894.48" y1="2817.77" x2="1887.94" y2="2772.99"/>
        <line class="cls-12" x1="1887.51" y1="2770" x2="1887.08" y2="2767.04"/>
      </g>
      <g class="cls-54">
        <line class="cls-27" x1="3848.08" y1="3801.85" x2="3839.37" y2="3742.17"/>
        <line class="cls-12" x1="3848.08" y1="3801.85" x2="3847.65" y2="3798.88"/>
        <line class="cls-5" x1="3846.77" y1="3792.91" x2="3840.24" y2="3748.13"/>
        <line class="cls-12" x1="3839.8" y1="3745.14" x2="3839.37" y2="3742.17"/>
      </g>
      <text class="cls-44" transform="translate(3446.71 3731.11)"><tspan x="0" y="0">1/4</tspan><tspan class="cls-43" x="44.45" y="0">”</tspan><tspan x="53.18" y="0" xml:space="preserve"> galv</tspan></text>
      <text class="cls-44" transform="translate(3446.71 3770.07)"><tspan x="0" y="0" xml:space="preserve"> shac</tspan><tspan class="cls-32" x="67.95" y="0">k</tspan><tspan x="83.7" y="0">le</tspan></text>
      <g class="cls-38">
        <line class="cls-27" x1="3470.24" y1="3692.71" x2="3461.53" y2="3633.03"/>
        <line class="cls-12" x1="3470.24" y1="3692.71" x2="3469.81" y2="3689.74"/>
        <line class="cls-5" x1="3468.94" y1="3683.77" x2="3462.4" y2="3638.99"/>
        <line class="cls-12" x1="3461.97" y1="3636" x2="3461.53" y2="3633.03"/>
      </g>
      <g class="cls-39">
        <rect class="cls-31" x="0" y="3216.96" width="1257.89" height="109.95"/>
        <rect class="cls-31" x="3090.16" y="910.88" width="2167.05" height="109.95" transform="translate(1250.4 4097.45) rotate(-60)"/>
        <rect class="cls-31" x="4021.53" y="4512.37" width="109.95" height="1810.9" transform="translate(-2162.76 2764.1) rotate(-30)"/>
        <rect class="cls-27" x="1589.86" y="3620.42" width="109.65" height="86.16" transform="translate(-2301.68 4406.73) rotate(-76.49)"/>
        <rect class="cls-3" x="1589.86" y="3620.42" width="109.65" height="86.16" transform="translate(-2301.68 4406.73) rotate(-76.49)"/>
        <rect class="cls-27" x="2353.26" y="2308.39" width="67.59" height="86.16" transform="translate(-457.05 4123.05) rotate(-76.49)"/>
        <rect class="cls-3" x="2353.26" y="2308.39" width="67.59" height="86.16" transform="translate(-457.05 4123.05) rotate(-76.49)"/>
        <rect class="cls-27" x="3670.29" y="4411.44" width="86.16" height="67.59"/>
        <rect class="cls-3" x="3670.29" y="4411.44" width="86.16" height="67.59"/>
        <path class="cls-27" d="m3911.5,5581.91l-129.6-224.47c-3.3-5.72-1.32-13.09,4.39-16.39l79.75-46.05c5.72-3.3,13.09-1.32,16.39,4.39l129.6,224.47c3.3,5.72,1.32,13.09-4.39,16.39l-79.75,46.05c-5.72,3.3-13.09,1.32-16.39-4.39"/>
        <path class="cls-10" d="m3911.5,5581.91l-129.6-224.47c-3.3-5.72-1.32-13.09,4.39-16.39l79.75-46.05c5.72-3.3,13.09-1.32,16.39,4.39l129.6,224.47c3.3,5.72,1.32,13.09-4.39,16.39l-79.75,46.05c-5.72,3.3-13.09,1.32-16.39-4.39Z"/>
        <path class="cls-26" d="m3911.5,5581.91l-84.5-146.36c-3.3-5.72-1.32-13.09,4.39-16.39l79.75-46.05c5.72-3.3,13.09-1.32,16.39,4.39l84.5,146.36c3.3,5.72,1.32,13.09-4.39,16.39l-79.75,46.05c-5.72,3.3-13.09,1.32-16.39-4.39"/>
        <path class="cls-10" d="m3911.5,5581.91l-84.5-146.36c-3.3-5.72-1.32-13.09,4.39-16.39l79.75-46.05c5.72-3.3,13.09-1.32,16.39,4.39l84.5,146.36c3.3,5.72,1.32,13.09-4.39,16.39l-79.75,46.05c-5.72,3.3-13.09,1.32-16.39-4.39Z"/>
      </g>
      <g class="cls-50">
        <rect class="cls-27" x="3607.03" y="6033.47" width="86.16" height="67.59" transform="translate(-2544.61 2637.91) rotate(-30)"/>
        <rect class="cls-3" x="3607.03" y="6033.47" width="86.16" height="67.59" transform="translate(-2544.61 2637.91) rotate(-30)"/>
      </g>
      <g class="cls-45">
        <line class="cls-27" x1="3585.01" y1="2175.36" x2="3427.68" y2="2065.54"/>
        <line class="cls-13" x1="3585.01" y1="2175.36" x2="3427.68" y2="2065.54"/>
        <path class="cls-27" d="m4333.77,464.45l-129.6,224.47c-3.3,5.72-10.68,7.69-16.39,4.39l-79.75-46.05c-5.71-3.3-7.69-10.68-4.39-16.39l129.6-224.47c3.3-5.72,10.68-7.69,16.39-4.39l79.75,46.05c5.72,3.3,7.69,10.68,4.39,16.39"/>
        <path class="cls-10" d="m4333.77,464.45l-129.6,224.47c-3.3,5.72-10.68,7.69-16.39,4.39l-79.75-46.05c-5.71-3.3-7.69-10.68-4.39-16.39l129.6-224.47c3.3-5.72,10.68-7.69,16.39-4.39l79.75,46.05c5.72,3.3,7.69,10.68,4.39,16.39Z"/>
        <path class="cls-26" d="m4333.77,464.45l-84.5,146.36c-3.3,5.72-10.68,7.69-16.39,4.39l-79.75-46.05c-5.72-3.3-7.69-10.68-4.39-16.39l84.5-146.36c3.3-5.72,10.68-7.69,16.39-4.39l79.75,46.05c5.72,3.3,7.69,10.68,4.39,16.39"/>
        <path class="cls-10" d="m4333.77,464.45l-84.5,146.36c-3.3,5.72-10.68,7.69-16.39,4.39l-79.75-46.05c-5.72-3.3-7.69-10.68-4.39-16.39l84.5-146.36c3.3-5.72,10.68-7.69,16.39-4.39l79.75,46.05c5.72,3.3,7.69,10.68,4.39,16.39Z"/>
        <path class="cls-10" d="m3647.22,4451.22h692.31s61.15.75,63.93-116.6c2.78-117.36,0-231.32,0-231.32"/>
        <polygon class="cls-27" points="4404.2 4245.03 4566.72 4105.53 4257.54 4105.53 4404.2 4245.03"/>
        <polygon class="cls-10" points="4404.2 4245.03 4566.72 4105.53 4257.54 4105.53 4404.2 4245.03"/>
      </g>
      <g class="cls-55">
        <rect class="cls-27" x="3267.99" y="1415.38" width="78.09" height="50.6" transform="translate(1319.44 4450.91) rotate(-80.1)"/>
        <rect class="cls-10" x="3267.99" y="1415.38" width="78.09" height="50.6" transform="translate(1319.44 4450.91) rotate(-80.1)"/>
      </g>
      <g class="cls-15">
        <path class="cls-10" d="m1644.69,3663.5l-469.93-75.06s-115.35-32.67-126.89-130.18c-11.54-97.51-4.39-198.49-4.39-198.49,0,0,42.69-230.12,84.04-297.57,41.35-67.45,322.39-619.31,322.39-619.31,0,0,67.01-159.87,327.14-111.11,260.13,48.75,736.92,138.67,736.92,138.67"/>
      </g>
      <g class="cls-42">
        <g class="cls-46">
          <g class="cls-36">
            <path class="cls-19" d="m1928.7,2713.85l-70.49-16.94c-6.42-1.54-10.41-8.05-8.86-14.47l51.28-213.41c1.54-6.42,8.05-10.41,14.47-8.86l70.49,16.94c6.42,1.54,10.41,8.05,8.86,14.47l-51.28,213.41c-1.54,6.42-8.05,10.41-14.47,8.86"/>
            <path class="cls-3" d="m1928.7,2713.85l-70.49-16.94c-6.42-1.54-10.41-8.05-8.86-14.47l51.28-213.41c1.54-6.42,8.05-10.41,14.47-8.86l70.49,16.94c6.42,1.54,10.41,8.05,8.86,14.47l-51.28,213.41c-1.54,6.42-8.05,10.41-14.47,8.86Z"/>
          </g>
        </g>
        <g class="cls-46">
          <g class="cls-52">
            <path class="cls-19" d="m3868.9,3678.16l-70.49-16.94c-6.42-1.54-10.41-8.05-8.86-14.47l45.55-189.54c1.54-6.42,8.05-10.41,14.47-8.86l70.49,16.94c6.42,1.54,10.41,8.05,8.86,14.47l-45.55,189.55c-1.54,6.42-8.05,10.41-14.47,8.86"/>
            <path class="cls-3" d="m3868.9,3678.16l-70.49-16.94c-6.42-1.54-10.41-8.05-8.86-14.47l45.55-189.54c1.54-6.42,8.05-10.41,14.47-8.86l70.49,16.94c6.42,1.54,10.41,8.05,8.86,14.47l-45.55,189.55c-1.54,6.42-8.05,10.41-14.47,8.86Z"/>
          </g>
        </g>
      </g>
      <g class="cls-37">
        <polygon class="cls-23" points="4919.81 238.71 4529.79 914.24 4360.21 816.33 4750.22 140.8 4780.55 158.31 4919.81 238.71"/>
        <polygon class="cls-9" points="4919.81 238.71 4529.79 914.24 4360.21 816.33 4750.22 140.8 4780.55 158.31 4919.81 238.71"/>
        <path class="cls-27" d="m4326.59,976.02l97.18-168.32c3.3-5.72,10.68-7.69,16.39-4.39l56.74,32.76c5.72,3.3,7.69,10.68,4.39,16.39l-97.18,168.32c-3.3,5.72-10.68,7.69-16.39,4.39l-56.74-32.76c-5.72-3.3-7.69-10.68-4.39-16.39"/>
        <path class="cls-10" d="m4326.59,976.02l97.18-168.32c3.3-5.72,10.68-7.69,16.39-4.39l56.74,32.76c5.72,3.3,7.69,10.68,4.39,16.39l-97.18,168.32c-3.3,5.72-10.68,7.69-16.39,4.39l-56.74-32.76c-5.72-3.3-7.69-10.68-4.39-16.39Z"/>
        <path class="cls-26" d="m4326.59,976.02l62.41-108.09c3.3-5.72,10.68-7.69,16.39-4.39l56.74,32.76c5.72,3.3,7.69,10.68,4.39,16.39l-62.41,108.1c-3.3,5.72-10.68,7.69-16.39,4.39l-56.74-32.76c-5.72-3.3-7.69-10.68-4.39-16.39"/>
        <path class="cls-10" d="m4326.59,976.02l62.41-108.09c3.3-5.72,10.68-7.69,16.39-4.39l56.74,32.76c5.72,3.3,7.69,10.68,4.39,16.39l-62.41,108.1c-3.3,5.72-10.68,7.69-16.39,4.39l-56.74-32.76c-5.72-3.3-7.69-10.68-4.39-16.39Z"/>
      </g>
      <g class="cls-16">
        <path class="cls-20" d="m2175.27,1983.87h-22.82c-6.6,0-12-5.4-12-12v-224.77c0-6.6,5.4-12,12-12h22.82c6.6,0,12,5.4,12,12v224.77c0,6.6-5.4,12-12,12"/>
        <path class="cls-20" d="m2413.85,2163l-11.41,19.77c-3.3,5.72-10.68,7.69-16.39,4.39l-194.66-112.38c-5.72-3.3-7.69-10.68-4.39-16.39l11.41-19.77c3.3-5.72,10.68-7.69,16.39-4.39l194.66,112.38c5.72,3.3,7.69,10.68,4.39,16.39"/>
        <path class="cls-20" d="m2118.57,2038.62l11.41,19.77c3.3,5.72,1.32,13.09-4.39,16.39l-194.65,112.38c-5.72,3.3-13.09,1.32-16.39-4.39l-11.41-19.77c-3.3-5.72-1.32-13.09,4.39-16.39l194.66-112.38c5.72-3.3,13.09-1.32,16.39,4.39"/>
        <path class="cls-20" d="m2251.79,2021.19c0,49.43-40.07,89.5-89.5,89.5s-89.5-40.07-89.5-89.5,40.07-89.5,89.5-89.5,89.5,40.07,89.5,89.5"/>
      </g>
      <g class="cls-53">
        <g class="cls-46">
          <g class="cls-51">
            <rect class="cls-31" x="-121.66" y="2060.8" width="4660.24" height="59.39" transform="translate(-749.37 1384.3) rotate(-30)"/>
          </g>
        </g>
      </g>
    </g>
  </g>
</svg>